<svg width="120" height="120" viewBox="0 0 120 120" fill="none" xmlns="http://www.w3.org/2000/svg">
<path d="M60.0013 18.4617C39.8749 18.4668 23.5016 34.3014 23.5016 53.7563C23.5016 66.3841 28.6258 73.8955 32.3993 79.4307C34.7201 82.8365 36.035 84.8637 36.035 86.9037C36.035 91.4815 38.4886 95.7963 42.8493 99.0311C42.9591 101.745 43.3599 108.373 43.3599 108.373C43.3599 108.376 43.3599 108.378 43.3599 108.381C43.4314 110.262 44.4221 114.12 50.907 116.275C51.6704 117.398 52.6738 118.397 53.8891 119.209C54.6499 119.722 55.5486 120 56.4678 120H63.5348C64.454 120 65.3501 119.729 66.1135 119.209C67.3314 118.394 68.3373 117.398 69.0956 116.275C75.6393 114.097 76.5916 110.196 76.6452 108.368C76.6452 108.368 77.0435 101.75 77.1533 99.0336C81.514 95.7963 83.9701 91.484 83.9701 86.9062C83.9701 84.8663 85.2825 82.8365 87.6262 79.4051C91.3717 73.9159 96.5061 66.3969 96.5061 53.7537C96.5035 34.2937 80.1277 18.4617 60.0013 18.4617ZM79.977 74.2325C77.2809 78.1847 74.738 81.9174 74.738 86.9037C74.738 89.0943 72.7568 90.8585 71.2811 91.8772H48.7241C47.2484 90.861 45.2671 89.0943 45.2671 86.9037C45.2671 81.9174 42.7217 78.1847 39.9949 74.1865C36.5916 69.1951 32.7312 63.5348 32.7312 53.7589C32.7312 39.3924 44.9659 27.699 60.0038 27.6939C75.0444 27.6939 87.2765 39.3847 87.2765 53.7537C87.2765 63.5501 83.4085 69.2028 79.977 74.2325Z" fill="#E6DED3"/>
<path d="M60.0013 11.5376C61.2753 11.5376 62.3068 10.5062 62.3068 9.22959V2.30804C62.3068 1.03402 61.2753 0 60.0013 0C58.7273 0 57.6933 1.03402 57.6933 2.30804V9.22959C57.6933 10.5062 58.7273 11.5376 60.0013 11.5376Z" fill="#E6DED3"/>
<path d="M35.4835 16.4192C35.9125 17.1596 36.6861 17.5732 37.4852 17.5732C37.8758 17.5732 38.2741 17.4737 38.6367 17.2643C39.7422 16.626 40.12 15.2167 39.4818 14.1112L36.0197 8.11643C35.3814 7.01092 33.9721 6.63305 32.8666 7.27134C31.7636 7.90962 31.3858 9.31896 32.0215 10.4245L35.4835 16.4192Z" fill="#E6DED3"/>
<path d="M22.1536 29.7492L16.1588 26.2897C15.0533 25.6514 13.644 26.0318 13.0057 27.1347C12.37 28.2377 12.7478 29.6496 13.8508 30.2879L19.8455 33.7474C20.2081 33.9567 20.6064 34.0563 20.997 34.0563C21.7961 34.0563 22.5697 33.6427 22.9987 32.9023C23.6344 31.7993 23.2565 30.3874 22.1536 29.7492Z" fill="#E6DED3"/>
<path d="M17.272 54.2669C17.272 52.9929 16.238 51.9589 14.964 51.9589H8.04241C6.7684 51.9589 5.73438 52.9929 5.73438 54.2669C5.73438 55.5409 6.7684 56.575 8.04241 56.575H14.964C16.238 56.575 17.272 55.5409 17.272 54.2669Z" fill="#E6DED3"/>
<path d="M19.8455 74.7865L13.8482 78.2434C12.7453 78.8817 12.3649 80.2936 13.0006 81.394C13.427 82.137 14.2057 82.548 15.0022 82.548C15.3929 82.548 15.7912 82.4485 16.1537 82.2391L22.1485 78.7822C23.254 78.1439 23.6318 76.732 22.9961 75.6316C22.3604 74.5235 20.9511 74.1482 19.8455 74.7865Z" fill="#E6DED3"/>
<path d="M106.154 78.2486L100.16 74.7865C99.0516 74.1482 97.6448 74.5235 97.0065 75.629C96.3682 76.7345 96.7435 78.1439 97.849 78.7822L103.844 82.2417C104.211 82.4536 104.605 82.5506 104.995 82.5506C105.794 82.5506 106.568 82.137 106.997 81.3991C107.63 80.2987 107.257 78.8817 106.154 78.2486Z" fill="#E6DED3"/>
<path d="M111.96 51.9614L105.044 51.9589C103.767 51.9589 102.736 52.9929 102.736 54.2644C102.736 55.5409 103.767 56.5724 105.039 56.5724L111.96 56.575C113.232 56.575 114.266 55.5409 114.266 54.2695C114.266 52.9955 113.237 51.9614 111.96 51.9614Z" fill="#E6DED3"/>
<path d="M99.003 34.0538C99.3962 34.0538 99.7945 33.9542 100.154 33.7448L106.152 30.2879C107.257 29.6521 107.635 28.2403 106.999 27.1373C106.361 26.0318 104.947 25.6539 103.846 26.2922L97.8515 29.7492C96.7435 30.3874 96.3682 31.7993 97.0039 32.8997C97.4328 33.6401 98.209 34.0538 99.003 34.0538Z" fill="#E6DED3"/>
<path d="M81.366 17.2592C81.7285 17.4711 82.1242 17.5707 82.5174 17.5707C83.314 17.5707 84.0876 17.1571 84.5165 16.4167L87.9735 10.4245C88.6118 9.3215 88.2365 7.90962 87.1309 7.27389C86.0254 6.63305 84.6161 7.01091 83.9778 8.11897L80.5209 14.1112C79.8851 15.2116 80.2656 16.6235 81.366 17.2592Z" fill="#E6DED3"/>
<path d="M56.9069 68.2045C57.1852 70.247 58.1732 70.8113 60.0013 70.8113C61.8268 70.8113 62.8174 70.247 63.0982 68.2045L65.2786 51.7444C65.4165 50.6211 65.5544 49.4951 65.5544 48.4407V40.2809C65.5544 36.6937 63.5144 34.8631 59.9987 34.8631C56.4805 34.8631 54.4406 36.6911 54.4406 40.2809V48.4407C54.4406 49.4951 54.581 50.6211 54.7214 51.7444L56.9069 68.2045Z" fill="#E6DED3"/>
<path d="M60.0013 75.3763C56.8328 75.3763 54.2312 77.9805 54.2312 81.1464C54.2312 84.3123 56.8354 86.9139 60.0013 86.9139C63.1672 86.9139 65.7688 84.3123 65.7688 81.1464C65.7714 77.9805 63.1672 75.3763 60.0013 75.3763Z" fill="#E6DED3"/>
</svg>
